# xmcd
#
# Track frame offsets: 
#        150
#        16217
#        30361
#        46032
#        61293
#        74489
#        86537
#        103133
#        118673
#        134854
#        151260
#        166783
#        180644
#
# Disc length: 2587 seconds
#
# Revision: 0
# Processed by: cddbd v1.4PL0 Copyright (c) Steve Scherf et al.
# Submitted via: ExactAudioCopy v0.90b4
#
DISCID=a50a190d
DTITLE=Rob Crosby - Time Is A Gypsy
DYEAR=2002
DGENRE=Country
TTITLE0=Counting The Days
TTITLE1=Time Is A Gypsy
TTITLE2=Solid Ground
TTITLE3=Learning As She Goes
TTITLE4=Cold Day In Tennessee
TTITLE5=A Woman Like That
TTITLE6=I'm Letting Go
TTITLE7=Wait
TTITLE8=Not A Day Goes By
TTITLE9=I've Got Just The Heart
TTITLE10=I Live To Love You
TTITLE11=Alice's Eyes
TTITLE12=House Of Pain
EXTD=
EXTT0=Counting The Days 3:34
EXTT1=
EXTT2=
EXTT3=
EXTT4=
EXTT5=
EXTT6=
EXTT7=
EXTT8=
EXTT9=
EXTT10=
EXTT11=
EXTT12=
PLAYORDER=
